<svg xmlns="http://www.w3.org/2000/svg" xmlns:xlink="http://www.w3.org/1999/xlink" width="1920" height="1080" viewBox="0 0 1920 1080">
  <defs>
    <clipPath id="clip-path">
      <rect id="사각형_138" data-name="사각형 138" width="1920" height="1080" fill="#fff" stroke="#707070" stroke-width="1"/>
    </clipPath>
  </defs>
  <g id="마스크_그룹_4" data-name="마스크 그룹 4" clip-path="url(#clip-path)">
    <g id="그룹_203" data-name="그룹 203">
      <path id="패스_928" data-name="패스 928" d="M595.781,616.938c431.052,0,1398.643-584.067,1398.643-309.524S1634.855,752.85,1203.8,752.85-300.65,982.2-300.65,707.655,164.73,616.938,595.781,616.938Z" transform="translate(236 409.378)" fill="rgba(15,76,129,0.34)" opacity="0.875"/>
      <path id="패스_929" data-name="패스 929" d="M595.781,616.938c431.052,0,1398.643-584.067,1398.643-309.524S1634.855,752.85,1203.8,752.85-319.124,1046.02-319.124,771.478c0-22.678-151.916-3.121-203.654-18.628C-618,724.311-618.807,604.077-590.024,589.69-444.074,516.736,265.6,616.938,595.781,616.938Z" transform="translate(489 372.378)" fill="rgba(15,76,129,0.55)" opacity="0.401"/>
    </g>
  </g>
</svg>
